HIERARCHY
ROOT Hips
{
  OFFSET -102.467 93.6631 130.069
  CHANNELS 6 Xposition Yposition Zposition Zrotation Xrotation Yrotation
  JOINT LeftUpLeg
  {
    OFFSET 8.64259 1.95398 -2.38835
    CHANNELS 3 Zrotation Xrotation Yrotation
    JOINT LeftLeg
    {
      OFFSET 43.7702 0 0
      CHANNELS 3 Zrotation Xrotation Yrotation
      JOINT LeftFoot
      {
        OFFSET 40.6238 0 0
        CHANNELS 3 Zrotation Xrotation Yrotation
        JOINT LeftToeBase
        {
          OFFSET 12.7242 0 0
          CHANNELS 3 Zrotation Xrotation Yrotation
          End Site
          {
            OFFSET 0 0 0
          }
        }
      }
    }
  }
  JOINT RightUpLeg
  {
    OFFSET -8.2249 1.95398 -2.59336
    CHANNELS 3 Zrotation Xrotation Yrotation
    JOINT RightLeg
    {
      OFFSET 43.5653 0 0
      CHANNELS 3 Zrotation Xrotation Yrotation
      JOINT RightFoot
      {
        OFFSET 40.6238 0 0
        CHANNELS 3 Zrotation Xrotation Yrotation
        JOINT RightToeBase
        {
          OFFSET 12.7242 0 0
          CHANNELS 3 Zrotation Xrotation Yrotation
          End Site
          {
            OFFSET 0 0 0
          }
        }
      }
    }
  }
  JOINT Spine
  {
    OFFSET 0.165834 0.87714 6.61349
    CHANNELS 3 Zrotation Xrotation Yrotation
    JOINT Spine1
    {
      OFFSET 7.38963 1.71661e-005 0
      CHANNELS 3 Zrotation Xrotation Yrotation
      JOINT Spine2
      {
        OFFSET 11.9445 1.14441e-005 0
        CHANNELS 3 Zrotation Xrotation Yrotation
        JOINT Spine3
        {
          OFFSET 14.7254 4.19617e-005 0
          CHANNELS 3 Zrotation Xrotation Yrotation
          JOINT Spine4
          {
            OFFSET 10.9679 0 0
            CHANNELS 3 Zrotation Xrotation Yrotation
            JOINT RightShoulder
            {
              OFFSET 2.46616 -1.6653 3.69651
              CHANNELS 3 Zrotation Xrotation Yrotation
              JOINT RightArm
              {
                OFFSET 13.0012 0 0
                CHANNELS 3 Zrotation Xrotation Yrotation
                JOINT RightForeArm
                {
                  OFFSET 28.7848 1.52588e-005 0
                  CHANNELS 3 Zrotation Xrotation Yrotation
                  JOINT RightHand
                  {
                    OFFSET 26.5688 1.52588e-005 0
                    CHANNELS 3 Zrotation Xrotation Yrotation
                    End Site
                    {
                      OFFSET 0 0 0
                    }
                  }
                }
              }
            }
            JOINT LeftShoulder
            {
              OFFSET 2.38034 -1.29275 -3.7523
              CHANNELS 3 Zrotation Xrotation Yrotation
              JOINT LeftArm
              {
                OFFSET 16.3182 6.10351e-005 0
                CHANNELS 3 Zrotation Xrotation Yrotation
                JOINT LeftForeArm
                {
                  OFFSET 27.0901 0 0
                  CHANNELS 3 Zrotation Xrotation Yrotation
                  JOINT LeftHand
                  {
                    OFFSET 24.5451 1.52588e-005 0
                    CHANNELS 3 Zrotation Xrotation Yrotation
                    End Site
                    {
                      OFFSET 0 0 0
                    }
                  }
                }
              }
            }
            JOINT Neck
            {
              OFFSET 5.0226 -0.0266342 0
              CHANNELS 3 Zrotation Xrotation Yrotation
              JOINT Head
              {
                OFFSET 6.69363 2.86102e-005 0
                CHANNELS 3 Zrotation Xrotation Yrotation
                End Site
                {
                  OFFSET 0 0 0
                }
              }
            }
          }
        }
      }
    }
  }
}
MOTION
Frames:	6
Frame Time:	0.0416667
286.044 48.8168 -281.918 -91.4943 -68.2361 -84.2569 173.498 -44.9825 100.491 -1.4912 30.1854 0.129351 84.5263 12.3788 -7.80186 93.734 -64.8646 -69.2746 132.815 64.1387 116.477 -0.184817 -68.7753 0.036554 44.0374 37.443 1.8375 111.709 60.1041 75.5126 -5.10278 6.52668 -82.4747 13.7467 -6.49019 15.9133 1.98762 -5.79423 16.1742 -20.068 -10.9292 13.2994 -0.0553067 -10.9292 13.2994 -86.7399 -21.9602 94.5555 168.936 42.5745 130.994 177.422 12.9402 -151.33 -19.5375 19.466 -100.246 -78.1511 19.534 112.533 -99.7924 -31.1148 -129.343 -135.824 -54.0008 175.322 37.5333 30.8808 71.2996 -82.668 32.7512 -28.6687 85.0493 1.37451 -14.5459 
275.557 67.7478 -270.36 -83.9199 -63.7526 -78.0283 179.579 -38.4158 101.498 -3.80082 26.5764 0.657786 78.6849 10.8888 -10.913 67.6028 -65.8962 -100.494 147.481 55.04 107.027 -1.04401 -58.354 0.166976 50.4147 21.0205 1.98129 113.427 60.0844 74.1747 -2.25035 7.3136 -89.1221 12.2899 -4.05613 2.20912 0.6231 -3.95497 2.38564 -21.9594 -4.5322 0.88598 -1.94674 -4.5322 0.885988 -70.3115 -77.1976 104.38 4.07698 -30.4709 44.2211 17.061 -1.91515 0.00914512 -17.9112 13.381 -80.4992 -109.39 -82.5071 63.0626 -168.32 69.1566 -108.79 30.9817 -49.2208 -70.771 90.9457 -16.3118 -19.6925 -73.4082 -0.925849 -23.5171 103.939 -12.4876 0.582353 
260.267 87.8914 -255.381 -79.3927 -58.315 -77.4255 -173.984 -29.0482 98.1137 -15.5009 29.9066 2.49659 66.6735 5.14431 -3.95355 21.7935 -20.3177 -155.973 166.588 45.6455 93.7654 -5.19513 -8.71513 1.42437 58.9644 4.4509 30.0826 152.417 47.5044 41.4 -1.57565 8.35672 -89.5201 10.1747 -2.92045 1.20824 -1.49368 -2.86445 1.33568 -24.0547 -3.14848 0.273852 -4.04201 -3.14848 0.27385 95.1559 -70.8151 -90.7437 24.2731 -20.4398 35.2055 -5.38925 -2.51828 -20.4029 -9.50867 1.9468 -45.0566 -87.8402 -46.1837 81.1281 25.7867 28.6088 -19.9649 -1.11212 -15.5504 -94.6053 37.6122 -2.40209 -11.4394 -53.1571 6.44866 -37.2254 98.6422 11.4714 11.9315 
241.678 96.9239 -236.866 -87.2472 -55.8302 -87.3477 -178.887 -9.61549 92.5481 -69.8449 13.09 5.70935 55.0846 -0.548218 3.6066 -115.88 29.3205 4.98347 172.448 32.373 88.0214 -12.9967 -0.288102 5.08675 45.5035 15.3712 33.5673 95.0085 -17.2333 0.639984 -1.24036 8.58527 -89.9769 9.72363 -2.46228 0.236427 -1.94478 -2.44949 0.344622 -24.4997 -2.41939 -0.514955 -4.48709 -2.4194 -0.514964 100.366 -51.6613 -84.9695 34.354 -16.3795 31.2527 -14.5393 -4.05128 -44.6175 -6.32629 0.903947 -25.0185 -83.6117 -42.5218 87.2303 -5.59883 20.9453 -11.8138 10.0909 -11.1386 -91.3377 18.194 0.0176702 -5.10312 -42.8546 1.43674 -33.4087 77.695 17.3556 26.524 
222.466 93.4516 -218.784 -94.3507 -51.4941 -86.8851 179.694 11.5999 91.4508 -106.146 7.38732 3.19592 45.0704 -1.91172 10.9457 22.6769 -3.51917 12.4723 172.783 29.8284 98.3048 -45.4443 -11.8867 5.38505 61.0507 5.3663 10.0217 27.5435 0.243563 0.879952 -0.579663 9.11446 -91.0813 8.62814 -1.6353 -2.04128 -3.04321 -1.72353 -1.96737 -25.5694 -0.946381 -2.43819 -5.55674 -0.946372 -2.43819 100.049 -53.5439 -85.3295 22.9628 -18.5646 11.5407 -12.7073 -2.16091 -52.8355 -13.2191 -0.0178602 -6.47583 -82.9484 -48.7283 88.9885 -12.1892 17.4694 0.0506452 11.9084 -7.24224 -67.0446 16.1806 -1.70279 -13.6243 -5.56763 -3.48403 -27.4393 25.6414 9.28415 38.8056 
203.414 91.6924 -200.307 -90.5952 -48.3545 -81.8977 171.631 40.7806 97.2083 -102.369 4.50639 3.47743 49.2783 1.80885 13.8986 50.2481 -1.51114 3.97116 174.735 16.595 102.559 -52.7562 -14.4012 4.71712 74.3577 -3.75139 4.41728 42.3918 -0.843957 8.46754 0.188176 8.90077 -91.495 9.05913 -0.292375 -2.93995 -2.61506 -0.421419 -2.92426 -25.1242 0.604316 -2.89204 -5.11156 0.604342 -2.89202 100.398 -50.7391 -84.9006 18.7036 -20.6097 -8.21676 -15.2281 1.64624 -67.3677 -18.1655 -0.641908 -1.11018 -83.8387 -53.971 88.1741 -11.1371 24.4138 10.5394 4.10859 -0.941119 -49.4131 12.77 -0.891882 -10.3934 31.7695 0.124022 -5.70489 -23.1103 0.16902 13.8301 
